<?xml version="1.0" standalone="no"?>
<!DOCTYPE svg PUBLIC "-//W3C//DTD SVG 20010904//EN"
 "http://www.w3.org/TR/2001/REC-SVG-20010904/DTD/svg10.dtd">
<svg version="1.0" xmlns="http://www.w3.org/2000/svg"
 width="1080.000000pt" height="1080.000000pt" viewBox="0 0 1080.000000 1080.000000"
 preserveAspectRatio="xMidYMid meet">

<g transform="translate(0.000000,1080.000000) scale(0.100000,-0.100000)"
fill="#000000" stroke="none">
<path d="M1990 6504 c-173 -68 -391 -155 -485 -192 -93 -37 -178 -75 -187 -84
-16 -16 -18 -44 -18 -295 1 -153 5 -375 10 -493 7 -189 12 -229 38 -332 99
-386 354 -676 767 -874 217 -104 186 -99 306 -48 440 190 726 477 849 853 56
172 61 239 58 741 l-3 455 -305 122 c-444 178 -689 273 -703 273 -6 -1 -154
-57 -327 -126z m616 -183 c148 -60 328 -133 399 -163 l130 -53 0 -425 c0 -405
-1 -429 -22 -507 -94 -352 -303 -589 -679 -770 l-115 -55 -72 32 c-112 51
-228 115 -293 163 -266 196 -417 457 -454 785 -6 58 -10 236 -8 437 l3 340 85
33 c47 19 162 66 255 104 241 100 467 187 486 188 9 0 137 -49 285 -109z"/>
<path d="M2191 6154 c-90 -33 -178 -109 -220 -192 -24 -46 -46 -172 -37 -208
6 -23 10 -24 85 -24 l78 0 7 57 c13 110 60 174 150 203 84 27 195 -16 241 -94
14 -25 29 -69 33 -102 l7 -59 77 -3 77 -3 6 34 c8 44 -9 139 -36 194 -34 70
-103 139 -176 175 -57 28 -78 33 -157 35 -65 2 -104 -1 -135 -13z"/>
<path d="M1779 5571 c-29 -29 -29 -30 -29 -151 0 -150 19 -249 71 -359 87
-187 260 -358 431 -427 58 -24 62 -24 106 -9 73 24 156 74 230 140 189 165
292 378 292 599 l0 91 -182 -180 c-307 -303 -342 -335 -373 -335 -22 0 -50 22
-131 102 -57 56 -100 106 -97 112 3 6 3 8 -2 4 -14 -13 -35 13 -35 44 0 44 16
66 60 79 46 14 55 9 142 -70 31 -28 61 -51 68 -51 14 0 449 428 442 435 -3 3
-221 5 -484 5 l-480 0 -29 -29z"/>
<path d="M2939 5523 l-34 -38 38 34 c20 19 37 36 37 38 0 8 -8 0 -41 -34z"/>
<path d="M9314 6096 c-3 -13 -4 -189 -2 -392 3 -327 5 -373 20 -401 28 -50 73
-76 140 -81 l59 -4 -3 48 c-3 44 -6 49 -28 52 -14 2 -33 11 -42 19 -17 15 -18
46 -18 384 0 202 -3 374 -6 383 -5 12 -20 16 -60 16 -48 0 -54 -2 -60 -24z"/>
<path d="M3813 6065 c-5 -8 -6 -40 -3 -72 l5 -58 115 -5 115 -5 3 -344 c2
-261 5 -347 15 -353 21 -13 133 -9 146 5 7 9 12 123 13 353 l3 339 110 3 c89
2 112 6 123 19 15 21 16 105 0 121 -9 9 -95 12 -325 12 -263 0 -313 -2 -320
-15z"/>
<path d="M6706 6055 c-10 -40 -6 -783 4 -811 9 -23 14 -25 62 -22 l53 3 3 151
3 151 148 5 c137 4 154 7 205 32 91 44 126 115 126 250 0 99 -27 166 -84 210
-63 48 -110 56 -322 56 l-192 0 -6 -25z m411 -105 c51 -31 67 -64 67 -139 0
-75 -18 -120 -61 -148 -22 -14 -54 -19 -160 -21 l-133 -4 0 166 0 166 128 0
c108 0 132 -3 159 -20z"/>
<path d="M6267 6053 c-4 -3 -7 -48 -7 -99 l0 -93 -47 -3 -48 -3 0 -60 0 -60
48 -3 47 -3 0 -192 c0 -168 3 -197 20 -234 31 -70 65 -84 195 -81 l110 3 3 58
3 57 -63 0 c-109 0 -108 -1 -108 210 l0 179 83 3 82 3 0 60 0 60 -82 3 -83 3
-2 37 c-1 20 -3 48 -4 62 -1 14 -2 42 -3 63 l-1 37 -68 0 c-38 0 -72 -3 -75
-7z"/>
<path d="M4512 5852 c-9 -7 -12 -77 -10 -318 l3 -309 75 0 75 0 5 210 c5 220
10 243 53 267 12 7 58 15 102 18 l80 5 0 65 0 65 -55 3 c-64 4 -131 -19 -159
-54 l-19 -24 -9 37 -9 38 -59 3 c-33 1 -66 -2 -73 -6z"/>
<path d="M5374 5847 c-11 -7 -14 -47 -14 -222 l0 -213 -30 -31 c-50 -49 -142
-52 -180 -6 -12 14 -16 66 -20 244 l-5 226 -75 0 -75 0 0 -255 c0 -238 1 -257
20 -290 55 -93 211 -115 317 -44 28 19 52 34 53 34 2 0 5 -15 7 -32 l3 -33 70
0 70 0 3 312 2 311 -66 4 c-36 1 -72 -1 -80 -5z"/>
<path d="M5745 5847 c-79 -31 -115 -85 -115 -175 0 -129 54 -178 223 -201 81
-11 97 -22 97 -67 0 -55 -24 -64 -176 -64 -145 0 -144 0 -144 -64 0 -53 9 -56
185 -56 182 0 223 12 266 71 21 30 24 45 24 121 0 72 -4 91 -21 115 -31 43
-92 69 -181 77 -95 9 -123 24 -123 69 0 60 5 62 157 62 l138 0 3 54 c2 37 -1
57 -10 62 -20 13 -288 9 -323 -4z"/>
<path d="M7466 5849 c-65 -10 -80 -26 -68 -70 7 -30 12 -34 38 -32 177 15 231
15 262 -1 32 -17 52 -61 52 -119 l0 -29 -74 7 c-91 9 -204 -9 -248 -38 -51
-35 -72 -81 -72 -156 0 -87 23 -134 82 -168 39 -23 57 -27 127 -27 68 0 91 4
133 25 l51 25 6 -23 c4 -19 12 -23 44 -23 75 0 71 -13 71 239 0 127 -5 243
-11 264 -16 57 -63 104 -122 122 -54 16 -188 18 -271 4z m272 -335 c15 -4 16
-103 1 -137 -27 -60 -163 -93 -222 -54 -54 35 -56 150 -4 179 41 22 170 29
225 12z"/>
<path d="M8215 5841 c-22 -10 -46 -25 -54 -34 -19 -24 -29 -21 -33 11 -3 26
-5 27 -58 27 l-55 0 0 -310 0 -310 34 -3 c19 -2 44 -1 57 2 l24 6 0 213 c0
237 5 256 72 297 41 25 133 27 166 4 43 -30 47 -49 52 -289 l5 -230 34 -3 c19
-2 44 -1 57 2 l24 6 0 215 c0 118 -5 237 -11 265 -13 59 -57 116 -106 136 -47
20 -160 17 -208 -5z"/>
<path d="M8830 5851 c-77 -24 -125 -70 -157 -152 -12 -32 -17 -76 -17 -164 0
-104 3 -127 23 -173 28 -62 83 -113 143 -132 48 -15 264 -16 313 -2 28 8 30
12 30 53 l0 44 -145 -3 c-131 -3 -148 -1 -177 17 -36 23 -57 58 -67 114 l-7
37 204 0 c170 0 207 3 217 15 9 10 11 40 8 98 -7 130 -61 213 -157 246 -38 12
-172 14 -211 2z m192 -107 c35 -18 58 -67 58 -124 l0 -40 -155 0 -155 0 6 43
c12 77 47 123 106 138 42 10 101 3 140 -17z"/>
<path d="M4766 4971 c-9 -14 4 -41 21 -41 9 0 13 8 11 22 -3 23 -23 35 -32 19z"/>
<path d="M5907 4974 c-4 -4 -7 -25 -7 -46 l0 -38 -45 0 c-67 0 -95 -31 -95
-105 0 -80 19 -95 110 -93 l71 2 -3 140 c-3 130 -10 161 -31 140z m-23 -120
c25 -10 22 -110 -3 -124 -34 -18 -61 -12 -71 16 -28 73 12 132 74 108z"/>
<path d="M4026 4955 c-38 -20 -53 -42 -61 -87 -10 -59 4 -118 36 -150 26 -26
34 -29 86 -26 46 2 59 7 61 21 3 14 -5 17 -51 17 -72 0 -82 13 -82 102 0 83
13 98 87 98 34 0 48 4 48 14 0 29 -76 36 -124 11z"/>
<path d="M4650 4951 c-5 -11 -10 -29 -10 -40 0 -12 -7 -21 -15 -21 -8 0 -15
-7 -15 -15 0 -8 7 -15 15 -15 11 0 15 -18 17 -82 3 -70 6 -83 21 -86 15 -3 17
6 17 82 0 84 0 85 27 88 36 4 43 28 9 28 -15 0 -29 7 -32 15 -8 20 13 45 37
45 11 0 19 5 19 10 0 6 -18 10 -40 10 -29 0 -42 -5 -50 -19z"/>
<path d="M5990 4950 c0 -16 5 -21 23 -18 12 2 22 10 22 18 0 8 -10 16 -22 18
-18 3 -23 -2 -23 -18z"/>
<path d="M6310 4950 c0 -13 7 -20 20 -20 13 0 20 7 20 20 0 13 -7 20 -20 20
-13 0 -20 -7 -20 -20z"/>
<path d="M6770 4830 c0 -133 1 -140 20 -140 19 0 20 7 20 140 0 133 -1 140
-20 140 -19 0 -20 -7 -20 -140z"/>
<path d="M7099 4955 c-66 -36 -75 -190 -14 -242 39 -34 155 -32 155 3 0 12
-10 13 -49 8 -41 -5 -52 -3 -69 14 -45 45 -35 174 15 193 14 5 41 7 60 3 31
-6 35 -4 31 12 -2 15 -13 19 -53 21 -29 2 -61 -3 -76 -12z"/>
<path d="M8222 4833 c3 -137 3 -138 27 -141 23 -4 24 -2 18 35 -4 21 -7 84 -7
141 0 96 -1 102 -20 102 -20 0 -20 -5 -18 -137z"/>
<path d="M9330 4835 c0 -115 2 -137 16 -142 9 -3 19 -1 23 5 3 5 5 69 3 141
-3 122 -4 131 -23 131 -18 0 -19 -8 -19 -135z"/>
<path d="M6420 4922 c0 -20 -7 -32 -22 -40 l-23 -11 23 -7 c20 -6 22 -12 22
-74 0 -82 14 -103 68 -98 41 3 57 28 19 28 -37 0 -48 22 -45 82 3 50 5 53 31
56 15 2 27 9 27 17 0 8 -12 15 -27 17 -22 2 -29 9 -31 31 -5 39 -42 38 -42 -1z"/>
<path d="M7720 4926 c0 -13 -10 -31 -22 -39 l-23 -16 23 -7 c20 -6 22 -12 22
-78 0 -43 5 -77 12 -84 17 -17 85 -15 91 2 8 19 -1 26 -35 26 -28 0 -28 0 -28
65 l0 65 30 0 c20 0 30 5 30 15 0 10 -10 15 -30 15 -27 0 -30 3 -30 30 0 23
-4 30 -20 30 -14 0 -20 -7 -20 -24z"/>
<path d="M8630 4925 c0 -14 -8 -29 -20 -35 -11 -6 -20 -15 -20 -19 0 -5 9 -11
20 -14 17 -4 20 -14 20 -70 0 -50 4 -68 19 -81 26 -23 84 -18 89 7 3 15 0 18
-18 12 -35 -11 -50 11 -50 76 0 59 0 59 30 59 20 0 30 5 30 15 0 10 -10 15
-30 15 -27 0 -30 3 -30 30 0 23 -4 30 -20 30 -15 0 -20 -7 -20 -25z"/>
<path d="M8995 4921 c-3 -16 -13 -32 -21 -35 -19 -7 -18 -24 3 -28 14 -3 17
-15 18 -69 0 -80 14 -101 63 -97 43 4 54 25 15 30 -27 3 -28 5 -31 71 -3 66
-3 67 23 67 16 0 25 6 25 15 0 9 -9 15 -24 15 -19 0 -25 6 -28 27 -4 40 -34
42 -43 4z"/>
<path d="M4901 4890 c-56 -9 -51 -30 8 -30 39 0 53 -4 60 -19 13 -24 5 -31
-38 -31 -52 0 -81 -23 -81 -65 0 -45 22 -56 102 -53 l63 3 0 82 c-1 46 -5 87
-11 93 -17 17 -66 26 -103 20z m67 -137 c-2 -23 -8 -29 -36 -31 -22 -2 -34 2
-38 12 -11 29 4 46 41 46 34 0 36 -2 33 -27z"/>
<path d="M5510 4892 c-29 -4 -52 -21 -45 -32 3 -4 20 -5 38 0 42 9 77 -4 77
-29 0 -17 -8 -20 -46 -23 -38 -2 -51 -8 -68 -31 -19 -26 -19 -30 -5 -55 14
-25 19 -27 84 -27 l70 0 3 79 c4 104 -20 130 -108 118z m54 -108 c9 -3 16 -14
16 -24 0 -43 -72 -55 -78 -12 -3 20 3 26 45 41 1 1 8 -2 17 -5z"/>
<path d="M6593 4889 c-53 -15 -42 -37 16 -31 41 4 51 1 60 -16 14 -26 6 -32
-45 -32 -52 0 -74 -19 -74 -65 0 -45 22 -56 102 -53 l63 3 3 55 c4 72 -5 118
-26 128 -31 16 -66 20 -99 11z m75 -138 c-3 -23 -8 -26 -38 -26 -30 0 -35 3
-35 25 0 17 7 26 25 30 37 10 51 1 48 -29z"/>
<path d="M7577 4894 c-4 -4 -24 -8 -44 -9 l-38 -1 0 -94 c0 -82 2 -95 18 -98
15 -3 17 5 17 70 0 79 9 98 47 98 31 0 43 -28 43 -105 0 -58 2 -66 18 -63 26
5 30 146 5 176 -20 22 -55 36 -66 26z"/>
<path d="M8045 4889 c-42 -12 -55 -35 -55 -96 0 -44 5 -59 25 -78 31 -32 91
-34 128 -5 54 42 42 150 -19 176 -37 16 -38 16 -79 3z m73 -41 c18 -18 15 -94
-4 -112 -36 -36 -84 -7 -84 50 0 50 16 74 48 74 16 0 33 -5 40 -12z"/>
<path d="M8354 4886 c-59 -26 -69 -135 -17 -176 39 -30 133 -26 133 6 0 10
-10 12 -43 8 -33 -5 -47 -2 -60 11 -34 33 -22 45 48 45 62 0 65 1 65 24 0 44
-18 73 -51 85 -39 13 -37 13 -75 -3z m76 -41 c23 -27 4 -47 -37 -39 -47 8 -46
8 -38 33 8 25 56 29 75 6z"/>
<path d="M9195 4894 c-5 -1 -22 -5 -37 -8 -50 -11 -33 -32 25 -31 46 0 52 -2
55 -22 3 -20 -1 -23 -35 -23 -54 0 -83 -23 -83 -65 0 -44 20 -55 99 -52 l61 1
0 81 c0 44 -4 86 -8 93 -9 13 -60 31 -77 26z m43 -136 c-3 -30 -6 -33 -38 -33
-26 0 -36 5 -38 19 -5 23 23 46 56 46 20 0 23 -4 20 -32z"/>
<path d="M4201 4864 c-31 -39 -29 -117 4 -149 31 -32 91 -34 127 -5 45 35 44
146 -2 170 -10 6 -39 10 -64 10 -36 0 -48 -5 -65 -26z m109 -23 c17 -33 12
-86 -11 -107 -19 -17 -23 -17 -47 -3 -20 11 -28 24 -30 51 -2 21 2 46 8 58 14
27 65 27 80 1z"/>
<path d="M4414 4877 c-3 -8 -4 -51 -2 -98 3 -70 6 -84 21 -87 15 -3 17 5 17
67 0 77 13 101 56 101 27 0 33 -15 36 -105 2 -46 7 -60 18 -60 23 0 27 156 5
179 -19 18 -85 22 -102 5 -8 -8 -13 -8 -17 0 -10 15 -26 14 -32 -2z"/>
<path d="M4770 4790 c0 -91 2 -101 18 -98 15 3 17 16 17 98 0 82 -2 95 -17 98
-16 3 -18 -7 -18 -98z"/>
<path d="M5075 4881 c-3 -2 -5 -47 -5 -98 0 -85 2 -94 18 -91 14 3 18 17 22
78 5 71 6 75 33 84 40 14 49 -1 55 -89 4 -63 7 -75 21 -73 21 4 27 131 8 168
-12 23 -18 25 -80 25 -37 1 -70 -1 -72 -4z"/>
<path d="M5302 4867 c-17 -18 -22 -35 -22 -73 0 -56 19 -90 57 -105 l26 -10
-23 -24 c-28 -30 -19 -45 26 -45 40 0 57 25 31 45 -24 17 -21 33 6 37 12 2 22
10 22 18 0 11 -9 14 -36 12 -46 -4 -69 18 -69 64 0 58 14 74 66 74 64 0 53 24
-12 28 -41 2 -53 -1 -72 -21z m88 -227 c0 -5 -9 -10 -20 -10 -11 0 -20 5 -20
10 0 6 9 10 20 10 11 0 20 -4 20 -10z"/>
<path d="M5990 4790 c0 -91 2 -100 19 -100 24 0 31 19 31 85 0 80 -9 115 -31
115 -17 0 -19 -9 -19 -100z"/>
<path d="M6104 4865 c-24 -24 -26 -32 -22 -81 6 -72 24 -89 88 -87 55 1 64
-11 31 -41 -15 -14 -29 -16 -60 -11 -28 5 -41 3 -41 -4 0 -19 51 -33 92 -26
60 10 69 33 66 161 l-3 109 -62 3 c-57 3 -66 0 -89 -23z m114 -67 c3 -49 0
-58 -18 -68 -45 -24 -87 21 -74 78 10 41 24 53 58 50 30 -3 31 -4 34 -60z"/>
<path d="M6317 4883 c-4 -3 -7 -46 -7 -95 0 -72 3 -90 16 -95 9 -3 20 0 25 8
9 14 10 153 2 177 -5 13 -25 16 -36 5z"/>
<path d="M7281 4864 c-15 -19 -21 -41 -21 -76 0 -64 31 -98 88 -98 75 0 118
67 92 146 -14 42 -35 54 -94 54 -36 0 -48 -5 -65 -26z m107 -16 c18 -18 15
-94 -4 -112 -21 -21 -40 -20 -64 4 -24 24 -26 67 -4 98 17 24 53 29 72 10z"/>
<path d="M7854 4843 c-7 -46 -1 -139 9 -149 3 -4 13 -4 22 -1 11 5 15 22 15
75 0 73 10 92 47 92 14 0 23 6 23 15 0 11 -13 14 -55 13 l-54 -2 -7 -43z"/>
<path d="M8789 4871 c-21 -16 -24 -28 -24 -81 0 -53 3 -65 24 -81 34 -28 101
-26 129 4 30 32 31 123 2 155 -27 29 -98 30 -131 3z m99 -23 c15 -15 16 -82 2
-109 -13 -23 -53 -25 -71 -2 -19 22 -18 101 1 113 21 13 54 12 68 -2z"/>
<path d="M6862 4718 c2 -15 10 -23 23 -23 30 0 27 39 -3 43 -20 3 -23 0 -20
-20z"/>
<path d="M9438 4735 c-3 -3 -3 -15 -1 -26 7 -26 38 -21 38 6 0 19 -25 32 -37
20z"/>
</g>
</svg>
